<svg width="42" height="42" viewBox="0 0 42 42" fill="none" xmlns="http://www.w3.org/2000/svg">
<path d="M30.905 19.6C30.5025 19.075 30.0125 18.62 29.5575 18.165C28.385 17.115 27.055 16.3625 25.935 15.26C23.3275 12.705 22.75 8.4875 24.4125 5.25C22.75 5.6525 21.2975 6.5625 20.055 7.56C15.5225 11.2 13.7375 17.6225 15.8725 23.135C15.9425 23.31 16.0125 23.485 16.0125 23.7125C16.0125 24.0975 15.75 24.4475 15.4 24.5875C14.9975 24.7625 14.5775 24.6575 14.245 24.3775C14.1456 24.2943 14.0626 24.1934 14 24.08C12.0225 21.5775 11.7075 17.99 13.0375 15.12C10.115 17.5 8.52246 21.525 8.74996 25.3225C8.85496 26.1975 8.95996 27.0725 9.25746 27.9475C9.50246 28.9975 9.97496 30.0475 10.5 30.975C12.39 34.0025 15.6625 36.1725 19.18 36.61C22.925 37.0825 26.9325 36.4 29.8025 33.81C33.005 30.905 34.125 26.25 32.48 22.26L32.2525 21.805C31.885 21 30.905 19.6 30.905 19.6ZM25.375 30.625C24.885 31.045 24.08 31.5 23.45 31.675C21.49 32.375 19.53 31.395 18.375 30.24C20.4575 29.75 21.7 28.21 22.0675 26.6525C22.365 25.2525 21.805 24.0975 21.5775 22.75C21.3675 21.455 21.4025 20.3525 21.875 19.145C22.2075 19.81 22.5575 20.475 22.9775 21C24.325 22.75 26.4425 23.52 26.8975 25.9C26.9675 26.145 27.0025 26.39 27.0025 26.6525C27.055 28.0875 26.425 29.6625 25.375 30.625Z" fill="#E25822"/>
</svg>
