<svg width="175" height="36" viewBox="0 0 175 36" fill="none" xmlns="http://www.w3.org/2000/svg">
<path d="M7.7 28V10.276H0.896V7.84H17.472V10.276H10.668V28H7.7ZM25.0572 28C24.9638 27.6453 24.8985 27.2533 24.8612 26.824C24.8425 26.3947 24.8332 25.872 24.8332 25.256H24.6932V18.452C24.6932 17.5373 24.4598 16.856 23.9932 16.408C23.5452 15.9413 22.8265 15.708 21.8372 15.708C20.8852 15.708 20.1198 15.8947 19.5412 16.268C18.9812 16.6413 18.6545 17.1733 18.5612 17.864H15.7892C15.9198 16.52 16.5265 15.4467 17.6092 14.644C18.6918 13.8413 20.1385 13.44 21.9492 13.44C23.8158 13.44 25.2158 13.8787 26.1492 14.756C27.0825 15.6147 27.5492 16.884 27.5492 18.564V25.256C27.5492 25.6853 27.5772 26.124 27.6332 26.572C27.6892 27.02 27.7732 27.496 27.8852 28H25.0572ZM20.1292 28.28C18.6732 28.28 17.5158 27.9253 16.6572 27.216C15.7985 26.488 15.3692 25.508 15.3692 24.276C15.3692 23.0067 15.8172 22.008 16.7132 21.28C17.6278 20.5333 18.9345 20.0293 20.6332 19.768L25.3372 19.012V21.056L21.0812 21.728C20.1292 21.8773 19.4105 22.1293 18.9252 22.484C18.4585 22.8387 18.2252 23.352 18.2252 24.024C18.2252 24.6773 18.4398 25.172 18.8692 25.508C19.3172 25.8253 19.9612 25.984 20.8012 25.984C21.9212 25.984 22.8452 25.7133 23.5732 25.172C24.3198 24.6307 24.6932 23.9493 24.6932 23.128L25.0572 25.2C24.7212 26.1893 24.1238 26.9547 23.2652 27.496C22.4065 28.0187 21.3612 28.28 20.1292 28.28ZM37.9903 28.252C36.6463 28.252 35.5263 27.9347 34.6303 27.3C33.753 26.6467 33.1743 25.7413 32.8943 24.584L33.2863 24.528V33.74H30.3743V13.72H33.1463V16.996L32.8663 16.912C33.165 15.8293 33.7996 14.98 34.7703 14.364C35.741 13.748 36.8796 13.44 38.1863 13.44C39.4743 13.44 40.585 13.748 41.5183 14.364C42.4703 14.98 43.1983 15.8387 43.7023 16.94C44.225 18.0413 44.4863 19.3293 44.4863 20.804C44.4863 22.2973 44.2156 23.604 43.6743 24.724C43.133 25.844 42.377 26.712 41.4063 27.328C40.4356 27.944 39.297 28.252 37.9903 28.252ZM37.3743 25.844C38.6436 25.844 39.6516 25.396 40.3983 24.5C41.145 23.604 41.5183 22.372 41.5183 20.804C41.5183 19.2547 41.145 18.0507 40.3983 17.192C39.6516 16.3147 38.6343 15.876 37.3463 15.876C36.077 15.876 35.0596 16.324 34.2943 17.22C33.5476 18.0973 33.1743 19.32 33.1743 20.888C33.1743 22.4187 33.5476 23.632 34.2943 24.528C35.0596 25.4053 36.0863 25.844 37.3743 25.844ZM87.7297 28.28C86.0684 28.28 84.8457 27.8973 84.0617 27.132C83.2964 26.348 82.9137 25.2 82.9137 23.688V10.444L85.7977 9.352V23.716C85.7977 24.4627 85.9937 25.0133 86.3857 25.368C86.7777 25.7227 87.4124 25.9 88.2897 25.9C88.6257 25.9 88.9244 25.872 89.1857 25.816C89.447 25.76 89.671 25.6947 89.8577 25.62V27.972C89.6524 28.0653 89.363 28.14 88.9897 28.196C88.6164 28.252 88.1964 28.28 87.7297 28.28ZM80.0577 16.044V13.72H89.8577V16.044H80.0577ZM97.3317 28.28C95.8757 28.28 94.597 27.9627 93.4957 27.328C92.3944 26.6747 91.5357 25.788 90.9197 24.668C90.3037 23.5293 89.9957 22.2413 89.9957 20.804C89.9957 19.348 90.3037 18.0693 90.9197 16.968C91.5544 15.8667 92.413 15.008 93.4957 14.392C94.597 13.7573 95.8757 13.44 97.3317 13.44C98.8064 13.44 100.094 13.7573 101.196 14.392C102.297 15.008 103.146 15.8667 103.744 16.968C104.36 18.0693 104.668 19.348 104.668 20.804C104.668 22.2413 104.36 23.5293 103.744 24.668C103.146 25.788 102.297 26.6747 101.196 27.328C100.094 27.9627 98.8064 28.28 97.3317 28.28ZM97.3317 25.9C98.209 25.9 98.965 25.6853 99.5997 25.256C100.253 24.8267 100.766 24.2293 101.14 23.464C101.513 22.6987 101.7 21.8027 101.7 20.776C101.7 19.2453 101.289 18.0413 100.468 17.164C99.6651 16.268 98.6197 15.82 97.3317 15.82C96.0624 15.82 95.0171 16.268 94.1957 17.164C93.393 18.06 92.9917 19.264 92.9917 20.776C92.9917 21.8027 93.169 22.6987 93.5237 23.464C93.897 24.2293 94.4104 24.8267 95.0637 25.256C95.7357 25.6853 96.4917 25.9 97.3317 25.9ZM168.67 28V24.528H172.114V28H168.67Z" fill="#737373"/>
<path d="M112.874 28.252C111.847 28.252 110.998 27.832 110.326 26.992C109.654 26.1333 109.318 25.0413 109.318 23.716C109.318 22.4653 109.514 21.2427 109.906 20.048C110.317 18.8347 110.858 17.7427 111.53 16.772C112.221 15.7827 112.977 14.9987 113.798 14.42C114.638 13.8413 115.478 13.552 116.318 13.552C117.214 13.552 117.97 13.7947 118.586 14.28C118.679 14.3547 118.735 14.42 118.754 14.476C118.773 14.5133 118.763 14.6067 118.726 14.756L117.97 18.424C117.914 18.6853 117.793 18.816 117.606 18.816C117.401 18.816 117.279 18.676 117.242 18.396L117.102 16.408C117.046 15.5493 116.915 14.9893 116.71 14.728C116.523 14.4667 116.243 14.336 115.87 14.336C115.347 14.336 114.815 14.5973 114.274 15.12C113.733 15.624 113.229 16.3147 112.762 17.192C112.314 18.0507 111.95 19.012 111.67 20.076C111.409 21.1213 111.278 22.1853 111.278 23.268C111.278 25.62 112.043 26.796 113.574 26.796C114.302 26.796 114.955 26.46 115.534 25.788C116.131 25.116 116.682 24.0707 117.186 22.652C117.242 22.4653 117.373 22.372 117.578 22.372C117.69 22.372 117.755 22.4187 117.774 22.512C117.793 22.5867 117.774 22.7453 117.718 22.988C117.531 24.0147 117.195 24.92 116.71 25.704C116.225 26.488 115.646 27.1133 114.974 27.58C114.321 28.028 113.621 28.252 112.874 28.252ZM126.611 28.252C125.939 28.252 125.435 27.972 125.099 27.412C124.763 26.852 124.744 25.984 125.043 24.808L127.199 16.688C127.404 15.96 127.432 15.456 127.283 15.176C127.152 14.896 126.956 14.756 126.695 14.756C126.284 14.756 125.817 15.0173 125.295 15.54C124.791 16.044 124.259 16.744 123.699 17.64C123.157 18.5173 122.625 19.516 122.103 20.636C121.599 21.7373 121.132 22.904 120.703 24.136C120.273 25.3493 119.928 26.5347 119.667 27.692C119.611 27.8973 119.48 28 119.275 28H118.099C117.837 28 117.735 27.8787 117.791 27.636L121.879 10.08C121.972 9.744 121.972 9.51067 121.879 9.38C121.804 9.24933 121.636 9.17467 121.375 9.156L120.535 9.072C120.255 9.05333 120.133 8.932 120.171 8.708C120.208 8.54 120.339 8.43733 120.563 8.4C121.235 8.288 121.832 8.15733 122.355 8.008C122.877 7.84 123.297 7.62533 123.615 7.364C123.764 7.252 123.904 7.196 124.035 7.196C124.259 7.196 124.343 7.336 124.287 7.616L121.543 19.516C121.524 19.6467 121.552 19.7213 121.627 19.74C121.701 19.7587 121.767 19.712 121.823 19.6C122.569 18.0693 123.279 16.8653 123.951 15.988C124.623 15.1107 125.248 14.4853 125.827 14.112C126.424 13.7387 126.965 13.552 127.451 13.552C128.141 13.552 128.645 13.832 128.963 14.392C129.28 14.952 129.28 15.8107 128.963 16.968L126.835 25.088C126.704 25.6107 126.695 26.0027 126.807 26.264C126.919 26.5253 127.124 26.656 127.423 26.656C127.796 26.656 128.16 26.4133 128.515 25.928C128.869 25.424 129.252 24.4813 129.663 23.1C129.719 22.8947 129.84 22.792 130.027 22.792C130.176 22.792 130.26 22.848 130.279 22.96C130.316 23.072 130.316 23.2027 130.279 23.352C129.924 24.6213 129.541 25.62 129.131 26.348C128.72 27.0573 128.3 27.552 127.871 27.832C127.46 28.112 127.04 28.252 126.611 28.252ZM134.103 28.252C132.946 28.252 132.031 27.776 131.359 26.824C130.687 25.8533 130.351 24.5467 130.351 22.904C130.351 21.6907 130.547 20.524 130.939 19.404C131.331 18.284 131.844 17.2853 132.479 16.408C133.132 15.5307 133.851 14.84 134.635 14.336C135.438 13.8133 136.24 13.552 137.043 13.552C138.2 13.552 139.115 14.028 139.787 14.98C140.459 15.932 140.795 17.2387 140.795 18.9C140.795 20.1133 140.599 21.28 140.207 22.4C139.815 23.52 139.292 24.5187 138.639 25.396C138.004 26.2733 137.286 26.9733 136.483 27.496C135.699 28 134.906 28.252 134.103 28.252ZM134.047 27.58C134.644 27.58 135.223 27.2907 135.783 26.712C136.362 26.1333 136.884 25.368 137.351 24.416C137.818 23.464 138.191 22.4093 138.471 21.252C138.751 20.076 138.891 18.9 138.891 17.724C138.891 15.3907 138.284 14.224 137.071 14.224C136.492 14.224 135.914 14.5133 135.335 15.092C134.756 15.652 134.234 16.408 133.767 17.36C133.319 18.312 132.955 19.376 132.675 20.552C132.395 21.7093 132.255 22.876 132.255 24.052C132.255 26.404 132.852 27.58 134.047 27.58ZM144.577 28.252C143.419 28.252 142.505 27.776 141.833 26.824C141.161 25.8533 140.825 24.5467 140.825 22.904C140.825 21.6907 141.021 20.524 141.413 19.404C141.805 18.284 142.318 17.2853 142.953 16.408C143.606 15.5307 144.325 14.84 145.109 14.336C145.911 13.8133 146.714 13.552 147.517 13.552C148.674 13.552 149.589 14.028 150.261 14.98C150.933 15.932 151.269 17.2387 151.269 18.9C151.269 20.1133 151.073 21.28 150.681 22.4C150.289 23.52 149.766 24.5187 149.113 25.396C148.478 26.2733 147.759 26.9733 146.957 27.496C146.173 28 145.379 28.252 144.577 28.252ZM144.521 27.58C145.118 27.58 145.697 27.2907 146.257 26.712C146.835 26.1333 147.358 25.368 147.825 24.416C148.291 23.464 148.665 22.4093 148.945 21.252C149.225 20.076 149.365 18.9 149.365 17.724C149.365 15.3907 148.758 14.224 147.545 14.224C146.966 14.224 146.387 14.5133 145.809 15.092C145.23 15.652 144.707 16.408 144.241 17.36C143.793 18.312 143.429 19.376 143.149 20.552C142.869 21.7093 142.729 22.876 142.729 24.052C142.729 26.404 143.326 27.58 144.521 27.58ZM153.986 28.252C153.37 28.252 152.717 28.1587 152.026 27.972C151.354 27.7853 150.841 27.552 150.486 27.272C150.356 27.16 150.3 26.992 150.318 26.768L150.934 23.1C150.972 22.8573 151.084 22.736 151.27 22.736C151.476 22.736 151.578 22.8667 151.578 23.128L151.634 24.472C151.672 25.536 151.924 26.32 152.39 26.824C152.876 27.3093 153.464 27.552 154.154 27.552C154.752 27.552 155.265 27.3653 155.694 26.992C156.124 26.6 156.338 26.0307 156.338 25.284C156.338 24.8547 156.273 24.4627 156.142 24.108C156.012 23.7347 155.806 23.3427 155.526 22.932C155.246 22.5027 154.864 21.9893 154.378 21.392C153.744 20.5707 153.268 19.8707 152.95 19.292C152.652 18.6947 152.502 18.0787 152.502 17.444C152.502 16.268 152.866 15.3253 153.594 14.616C154.341 13.9067 155.284 13.552 156.422 13.552C156.926 13.552 157.412 13.6267 157.878 13.776C158.364 13.9253 158.765 14.1493 159.082 14.448C159.25 14.5787 159.306 14.7467 159.25 14.952L158.466 18.704C158.41 18.9467 158.298 19.068 158.13 19.068C157.962 19.068 157.86 18.9373 157.822 18.676L157.738 17.332C157.664 16.212 157.514 15.4093 157.29 14.924C157.085 14.4387 156.646 14.196 155.974 14.196C155.377 14.196 154.892 14.4013 154.518 14.812C154.145 15.2227 153.958 15.7173 153.958 16.296C153.958 16.912 154.126 17.4813 154.462 18.004C154.798 18.508 155.256 19.152 155.834 19.936C156.6 20.944 157.113 21.7467 157.374 22.344C157.654 22.9413 157.794 23.548 157.794 24.164C157.794 24.948 157.617 25.648 157.262 26.264C156.926 26.88 156.469 27.3653 155.89 27.72C155.312 28.0747 154.677 28.252 153.986 28.252ZM161.68 28.252C160.69 28.252 159.897 27.8693 159.3 27.104C158.702 26.32 158.404 25.2187 158.404 23.8C158.404 22.568 158.618 21.3453 159.048 20.132C159.496 18.9187 160.074 17.8173 160.784 16.828C161.493 15.8387 162.268 15.0453 163.108 14.448C163.966 13.8507 164.797 13.552 165.6 13.552C166.477 13.552 167.102 13.7667 167.476 14.196C167.868 14.6067 168.064 15.1667 168.064 15.876C168.064 16.716 167.765 17.556 167.168 18.396C166.589 19.2173 165.768 19.9547 164.704 20.608C163.658 21.2613 162.426 21.7467 161.008 22.064C160.597 22.1573 160.382 22.3907 160.364 22.764C160.345 22.8947 160.336 23.0347 160.336 23.184C160.336 23.3147 160.336 23.4453 160.336 23.576C160.336 24.64 160.513 25.4427 160.868 25.984C161.241 26.5253 161.745 26.796 162.38 26.796C163.089 26.796 163.77 26.4693 164.424 25.816C165.096 25.1627 165.656 24.2387 166.104 23.044C166.16 22.876 166.272 22.792 166.44 22.792C166.552 22.792 166.617 22.8387 166.636 22.932C166.673 23.0253 166.673 23.1373 166.636 23.268C166.038 24.9107 165.31 26.152 164.452 26.992C163.612 27.832 162.688 28.252 161.68 28.252ZM160.644 21C160.606 21.1307 160.625 21.2427 160.7 21.336C160.793 21.4107 160.905 21.4293 161.036 21.392C162.193 21.0747 163.164 20.5987 163.948 19.964C164.732 19.3107 165.32 18.5827 165.712 17.78C166.122 16.9773 166.328 16.1933 166.328 15.428C166.328 14.644 166.02 14.252 165.404 14.252C164.862 14.252 164.274 14.5693 163.64 15.204C163.005 15.8387 162.417 16.6693 161.876 17.696C161.334 18.7227 160.924 19.824 160.644 21Z" fill="#0A0A0A"/>
<path d="M66.5 12C69.0289 12 71 13.9635 71 16.5C71 18.0562 70.3069 19.5515 68.8818 21.2949C67.4458 23.0517 65.3728 24.9364 62.7783 27.2891L62.7764 27.29L62 27.9971L61.2236 27.29L61.2217 27.2891C58.6272 24.9364 56.5542 23.0517 55.1182 21.2949C53.6931 19.5515 53 18.0562 53 16.5C53 13.9635 54.9711 12 57.5 12C58.9377 12 60.3342 12.6746 61.2412 13.7314L62 14.6152L62.7588 13.7314C63.6658 12.6746 65.0623 12 66.5 12Z" stroke="#737373" stroke-width="2"/>
</svg>
