<svg width="36" height="34" viewBox="0 0 36 34" fill="none" xmlns="http://www.w3.org/2000/svg">
<g filter="url(#filter0_ii_55_1241)">
<path d="M15.0588 1.48116C16.1135 0.714867 17.5417 0.714867 18.5964 1.48116L32.35 11.4738C33.4047 12.2401 33.8461 13.5983 33.4432 14.8382L28.1898 31.0066C27.7869 32.2465 26.6315 33.086 25.3278 33.086H8.32738C7.02367 33.086 5.86824 32.2465 5.46538 31.0066L0.211958 14.8382C-0.190908 13.5983 0.250428 12.2401 1.30515 11.4738L15.0588 1.48116Z" fill="url(#paint0_linear_55_1241)"/>
</g>
<path d="M15.3535 1.88647C16.2324 1.24805 17.4229 1.24802 18.3018 1.88647L32.0557 11.8796C32.9343 12.5183 33.3015 13.6502 32.9658 14.6833L27.7129 30.8513C27.3772 31.8845 26.4144 32.5846 25.3281 32.5847H8.32715C7.24082 32.5846 6.27808 31.8845 5.94238 30.8513L0.688477 14.6833C0.352823 13.6502 0.720895 12.5182 1.59961 11.8796L15.3535 1.88647Z" stroke="url(#paint1_linear_55_1241)" stroke-width="1.0031"/>
<path fill-rule="evenodd" clip-rule="evenodd" d="M22.5179 11.9724C22.3722 11.9024 22.209 11.877 22.0489 11.8996C21.8888 11.9222 21.739 11.9917 21.6184 12.0993C21.5371 12.173 21.4601 12.2507 21.3876 12.3326C21.264 12.4693 21.1011 12.6657 20.9439 12.9121C20.6386 13.3893 20.2973 14.1399 20.4217 15.0214C20.5453 15.9029 21.0798 16.5307 21.5054 16.9048C21.6241 17.0104 21.7412 17.1012 21.8476 17.1774C21.5889 17.9058 21.6896 18.6187 21.8271 19.1115C21.8598 19.2261 21.8939 19.3322 21.9294 19.4299C21.2852 19.8784 20.9529 20.53 20.781 21.0178C20.7183 21.1937 20.6677 21.3736 20.6296 21.5564C19.9216 21.6587 19.3626 22.0262 18.9967 22.3405C18.7282 22.5697 18.4614 22.8398 18.2723 23.1418C17.8189 23.8679 17.7689 24.7756 18.0047 25.545C18.2437 26.3242 18.815 27.0756 19.7309 27.3809C19.9294 27.4481 20.146 27.4365 20.3363 27.3487C20.5265 27.2609 20.6758 27.1035 20.7535 26.9088C20.8311 26.7142 20.8311 26.4973 20.7536 26.3026C20.676 26.108 20.5268 25.9505 20.3366 25.8626L20.2482 25.8274C19.9928 25.7423 19.7792 25.5434 19.6458 25.261C20.0223 25.4656 20.4831 25.6211 21.0127 25.6211C21.9032 25.6211 22.599 25.1791 23.0287 24.8108C23.2967 24.5802 23.5356 24.3177 23.74 24.0291C23.8296 23.8944 23.8773 23.736 23.877 23.5742C23.8768 23.4123 23.8285 23.2542 23.7383 23.1197L23.7007 23.0649C23.8573 23.0114 24.0128 22.9405 24.1672 22.8521C24.9391 22.4068 25.3205 21.6759 25.5088 21.1414C25.5857 20.9212 25.6373 20.7174 25.67 20.5521L25.7085 20.336L25.7281 20.1772L25.7339 20.1093C25.7441 19.9481 25.7064 19.7875 25.6256 19.6476C25.5448 19.5078 25.4244 19.395 25.2796 19.3235L25.2411 19.3047C25.3983 19.1238 25.5399 18.9142 25.6536 18.6711C26.0302 17.8641 25.9229 17.0472 25.7707 16.5013C25.6793 16.1597 25.5422 15.8321 25.3631 15.5272C25.2783 15.3895 25.1551 15.2797 25.0086 15.2113C24.8621 15.143 24.6988 15.119 24.5388 15.1425L24.4807 15.1532C24.5069 14.9322 24.5085 14.6964 24.4742 14.4517C24.3506 13.5702 23.8153 12.9432 23.3905 12.5683C23.1278 12.3313 22.8343 12.1309 22.5179 11.9724ZM22.5793 15.6697C22.301 15.4216 22.089 15.1245 22.0424 14.7938C21.9965 14.4632 22.1177 14.1186 22.3166 13.8034C22.5949 14.0515 22.8069 14.3494 22.8535 14.6793C22.8994 15.0099 22.7782 15.3545 22.5793 15.6697ZM24.1967 16.9531C23.8586 17.1086 23.5689 17.3312 23.4273 17.6333C23.2865 17.9361 23.3021 18.3012 23.4003 18.6605C23.7391 18.505 24.0289 18.2823 24.1697 17.9795C24.3105 17.6766 24.2957 17.3116 24.1967 16.9531ZM23.9601 20.6085C23.5943 20.5422 23.2292 20.5586 22.9403 20.7256C22.6513 20.8926 22.4541 21.2003 22.3288 21.5507C22.6955 21.6178 23.0606 21.6014 23.3495 21.4344C23.6385 21.2675 23.8349 20.9597 23.9601 20.6085ZM21.9548 23.5757C21.6708 23.3342 21.3466 23.1664 21.0127 23.1664C20.6787 23.1664 20.3546 23.3342 20.0706 23.5757C20.3546 23.8163 20.6787 23.9849 21.0119 23.9849C21.3466 23.9849 21.6708 23.8163 21.9548 23.5757ZM12.5493 11.9724C12.695 11.9024 12.8582 11.877 13.0183 11.8996C13.1784 11.9222 13.3282 11.9917 13.4488 12.0993C13.5296 12.173 13.6065 12.2507 13.6796 12.3326C13.8032 12.4693 13.9661 12.6657 14.1233 12.9121C14.4286 13.3893 14.7699 14.1399 14.6455 15.0214C14.5219 15.9029 13.9874 16.5307 13.5618 16.9048C13.4527 17.0017 13.3385 17.0927 13.2196 17.1774C13.4783 17.9058 13.3776 18.6187 13.2401 19.1115C13.2074 19.2261 13.1733 19.3322 13.1378 19.4299C13.7811 19.8784 14.1143 20.53 14.2862 21.0178C14.3557 21.2167 14.404 21.4009 14.4376 21.5564C15.1456 21.6587 15.7046 22.0262 16.0705 22.3405C16.339 22.5697 16.6058 22.8398 16.7949 23.1418C17.2484 23.8679 17.2983 24.7756 17.0625 25.545C16.8235 26.3242 16.2522 27.0756 15.3363 27.3809C15.1378 27.4481 14.9212 27.4365 14.7309 27.3487C14.5407 27.2609 14.3914 27.1035 14.3138 26.9088C14.2361 26.7142 14.2361 26.4973 14.3136 26.3026C14.3912 26.108 14.5404 25.9505 14.7306 25.8626L14.819 25.8274C15.0744 25.7423 15.288 25.5434 15.4214 25.261C15.0449 25.4656 14.5841 25.6211 14.0545 25.6211C13.164 25.6211 12.4691 25.1791 12.0385 24.8108C11.854 24.6519 11.6829 24.4781 11.527 24.291C11.456 24.2071 11.3894 24.1197 11.3272 24.0291C11.2376 23.8944 11.1899 23.736 11.1902 23.5742C11.1904 23.4123 11.2387 23.2542 11.3289 23.1197L11.3665 23.0649C11.2046 23.0089 11.0484 22.9377 10.9 22.8521C10.1281 22.4068 9.7467 21.6759 9.55844 21.1414C9.49008 20.9492 9.43618 20.7523 9.39719 20.5521L9.35872 20.336L9.33908 20.1772C9.31358 20.0057 9.3432 19.8305 9.42367 19.677C9.50414 19.5234 9.63129 19.3993 9.7868 19.3227L9.82609 19.3047C9.65956 19.1139 9.52069 18.9006 9.41356 18.6711C9.03705 17.8641 9.14427 17.0472 9.29652 16.5013C9.38794 16.1597 9.52505 15.8321 9.70413 15.5272C9.78886 15.3895 9.91209 15.2797 10.0586 15.2113C10.2051 15.143 10.3684 15.119 10.5284 15.1425L10.5865 15.1532C10.5582 14.9201 10.5604 14.6843 10.593 14.4517C10.7166 13.5702 11.2511 12.9432 11.6767 12.5683C11.9394 12.3313 12.2329 12.1309 12.5493 11.9724ZM12.4879 15.6697C12.7662 15.4216 12.9782 15.1245 13.0248 14.7938C13.0707 14.4632 12.9495 14.1186 12.7506 13.8034C12.4723 14.0515 12.2603 14.3494 12.2137 14.6793C12.1679 15.0099 12.289 15.3545 12.4879 15.6697ZM10.8713 16.9531C11.2094 17.1086 11.4991 17.3312 11.6407 17.6333C11.7815 17.9361 11.766 18.3012 11.6677 18.6605C11.3289 18.505 11.0391 18.2823 10.8983 17.9795C10.7576 17.6766 10.7723 17.3116 10.8713 16.9531ZM11.1079 20.6085C11.4738 20.5422 11.8388 20.5586 12.1277 20.7256C12.4167 20.8926 12.6139 21.2003 12.7392 21.5507C12.3725 21.6178 12.0074 21.6014 11.7185 21.4344C11.4296 21.2675 11.2331 20.9597 11.1079 20.6085ZM13.1132 23.5757C13.3973 23.3342 13.7214 23.1664 14.0553 23.1664C14.3893 23.1664 14.7134 23.3342 14.9974 23.5757C14.7134 23.8163 14.3893 23.9849 14.0562 23.9849C13.7214 23.9849 13.3973 23.8163 13.1132 23.5757Z" fill="url(#paint2_linear_55_1241)"/>
<defs>
<filter id="filter0_ii_55_1241" x="-0.0358564" y="-1.83697" width="34.8805" height="35.1235" filterUnits="userSpaceOnUse" color-interpolation-filters="sRGB">
<feFlood flood-opacity="0" result="BackgroundImageFix"/>
<feBlend mode="normal" in="SourceGraphic" in2="BackgroundImageFix" result="shape"/>
<feColorMatrix in="SourceAlpha" type="matrix" values="0 0 0 0 0 0 0 0 0 0 0 0 0 0 0 0 0 0 127 0" result="hardAlpha"/>
<feOffset dx="-0.10031" dy="0.200619"/>
<feGaussianBlur stdDeviation="0.313467"/>
<feComposite in2="hardAlpha" operator="arithmetic" k2="-1" k3="1"/>
<feColorMatrix type="matrix" values="0 0 0 0 0.513726 0 0 0 0 0.4 0 0 0 0 0.172549 0 0 0 0.05 0"/>
<feBlend mode="normal" in2="shape" result="effect1_innerShadow_55_1241"/>
<feColorMatrix in="SourceAlpha" type="matrix" values="0 0 0 0 0 0 0 0 0 0 0 0 0 0 0 0 0 0 127 0" result="hardAlpha"/>
<feOffset dx="1.25387" dy="-6.36965"/>
<feGaussianBlur stdDeviation="1.37173"/>
<feComposite in2="hardAlpha" operator="arithmetic" k2="-1" k3="1"/>
<feColorMatrix type="matrix" values="0 0 0 0 0.513726 0 0 0 0 0.4 0 0 0 0 0.172549 0 0 0 0.05 0"/>
<feBlend mode="normal" in2="effect1_innerShadow_55_1241" result="effect2_innerShadow_55_1241"/>
</filter>
<linearGradient id="paint0_linear_55_1241" x1="16.3511" y1="13.4871" x2="2.30778" y2="36.5582" gradientUnits="userSpaceOnUse">
<stop stop-color="#ECC25F"/>
<stop offset="0.5" stop-color="#F2C761"/>
<stop offset="1" stop-color="#BD9A48"/>
</linearGradient>
<linearGradient id="paint1_linear_55_1241" x1="16.8527" y1="13.5874" x2="8.8279" y2="33.7997" gradientUnits="userSpaceOnUse">
<stop stop-color="#FCE4A8"/>
<stop offset="1" stop-color="#F1CF84"/>
</linearGradient>
<linearGradient id="paint2_linear_55_1241" x1="9.14822" y1="23.1178" x2="27.0535" y2="16.1713" gradientUnits="userSpaceOnUse">
<stop stop-color="#957133"/>
<stop offset="1" stop-color="#B88D49"/>
</linearGradient>
</defs>
</svg>
